# xmcd
#
# Track frame offsets: 
#        150
#        16043
#        32558
#        47206
#        62829
#        79884
#        96954
#        113357
#        127007
#        146635
#        163188
#        175451
#        197404
#        211167
#        223580
#        243133
#        259251
#        276284
#        289664
#        302339
#
# Disc length: 4211 seconds
#
# Revision: 0
# Processed by: cddbd v1.5.2PL0 Copyright (c) Steve Scherf et al.
# Submitted via: ExactAudioCopy v1.3
#
DISCID=1c107114
DTITLE=Various Artist - TSP Country and Americana
DYEAR=2018
DGENRE=Country
TTITLE0=Todd Barrow - Just Like Whiskey
TTITLE1=Ronnie Dye - Skin
TTITLE2=Dennis Ledbetter - JD's My Whiskey
TTITLE3=Tom Taylor - Without You
TTITLE4=Band Of Bandits - Drinkin Time
TTITLE5=Roger Gard - Fewer Left To Thank
TTITLE6=Brad Howard - Freedom
TTITLE7=Cathy Hutch - Free Wheelin'
TTITLE8=J D Strait - Laddy Lind
TTITLE9=Andreas Carsson and The Moonshine Band - Last Man Standing
TTITLE10=Roger Gard - Life On The Banks
TTITLE11=Doug Adkins - Not Enough Whiskey
TTITLE12=Randy Cherkis - We Could Be Friends
TTITLE13=Kim Kondrashoff - To Get You To Talk To Me
TTITLE14=The Greatest Gift - Remember That I Love You
TTITLE15=Cool Summer Breeze - Me And You
TTITLE16=The Captain's Crew (f. Eddie Francis) - When You Call Jesus
TTITLE17=T J Miller - Whatever Happened To Country
TTITLE18=T J Miller - Need The Number To Heaven
TTITLE19=Jeffery Leonard - Raised On Jesus And Sweet Tea
EXTD=
EXTT0=
EXTT1=
EXTT2=
EXTT3=
EXTT4=
EXTT5=
EXTT6=
EXTT7=
EXTT8=
EXTT9=
EXTT10=
EXTT11=
EXTT12=
EXTT13=
EXTT14=
EXTT15=
EXTT16=
EXTT17=
EXTT18=
EXTT19=
PLAYORDER=
